<svg xmlns="http://www.w3.org/2000/svg" width="58" height="12" viewBox="0 0 58 12">
  <defs>
    <style>
      .cls-1 {
        fill: #171717;
        fill-rule: evenodd;
      }
    </style>
  </defs>
  <path class="cls-1" d="M5.525,1.8A3.76,3.76,0,0,0,.852,6.511,3.4,3.4,0,0,0,3.405,9.082,3.76,3.76,0,0,0,8.079,4.374,3.379,3.379,0,0,0,5.525,1.8ZM4.471,8.032A2.418,2.418,0,0,1,2.015,5.438,2.418,2.418,0,0,1,4.47,2.843,2.412,2.412,0,0,1,6.912,5.437,2.412,2.412,0,0,1,4.471,8.032Zm9.39-6.35A3.215,3.215,0,0,0,11.353,2.7V1.736H10.121v7.4h1.272V5.262a2.155,2.155,0,0,1,2.295-2.393,1.811,1.811,0,0,1,1.948,2.1V9.137h1.272V4.871A2.867,2.867,0,0,0,13.861,1.682Zm8.994,0A3.237,3.237,0,0,0,20.306,2.8V1.735H19.074V11.746h1.272V8.126A3.245,3.245,0,0,0,22.856,9.2a3.593,3.593,0,0,0,3.66-3.768A3.586,3.586,0,0,0,22.855,1.681ZM22.789,8.029a2.418,2.418,0,0,1-2.455-2.594,2.418,2.418,0,0,1,2.455-2.595,2.445,2.445,0,0,1,2.455,2.594A2.418,2.418,0,0,1,22.789,8.029Zm18.083-6.29v7.4h1.272v-7.4H40.872Zm7.419-.055A3.216,3.216,0,0,0,45.783,2.7V1.738H44.551v7.4h1.272V5.264a2.155,2.155,0,0,1,2.294-2.393,1.811,1.811,0,0,1,1.948,2.1V9.139h1.272V4.873A2.867,2.867,0,0,0,48.291,1.684Zm8.485,5.848-0.159.145A1.389,1.389,0,0,1,55.689,8a0.963,0.963,0,0,1-1.048-1.121V2.835h2.126V1.706H54.641V0.168H53.374v6.76a2.011,2.011,0,0,0,2.208,2.21A2.383,2.383,0,0,0,57.165,8.6l0.092-.082ZM33.52,0.373a4.911,4.911,0,0,0-5.068,5.088,5.06,5.06,0,1,0,10.119,0A4.9,4.9,0,0,0,33.52.373Zm2.3,7.4H31.178a0.652,0.652,0,0,1-.65-0.655V3.841A0.677,0.677,0,0,1,31.2,3.162H35.82a0.677,0.677,0,0,1,.674.679V7.1A0.677,0.677,0,0,1,35.821,7.777Z"/>
</svg>
